<svg xmlns="http://www.w3.org/2000/svg" xmlns:xlink="http://www.w3.org/1999/xlink" width="360" zoomAndPan="magnify" viewBox="0 0 270 269.999989" height="360" preserveAspectRatio="xMidYMid meet" version="1.0"><defs><clipPath id="05eb5b5787"><path d="M 137 42.375 L 227.625 42.375 L 227.625 227.625 L 137 227.625 Z M 137 42.375 " clip-rule="nonzero"/></clipPath><clipPath id="352cfaaf3f"><path d="M 42.375 137 L 133 137 L 133 216 L 42.375 216 Z M 42.375 137 " clip-rule="nonzero"/></clipPath><clipPath id="2d4af84527"><path d="M 42.375 42.375 L 133 42.375 L 133 121 L 42.375 121 Z M 42.375 42.375 " clip-rule="nonzero"/></clipPath></defs><g clip-path="url(#05eb5b5787)"><path fill="#ffffff" d="M 194.75 132.007812 C 196.394531 132.007812 197.738281 133.351562 197.738281 134.996094 L 197.738281 158.898438 L 203.714844 158.898438 L 203.714844 140.972656 C 203.714844 139.324219 205.054688 137.984375 206.699219 137.984375 C 208.347656 137.984375 209.6875 139.324219 209.6875 140.972656 L 209.6875 158.898438 L 215.664062 158.898438 L 215.664062 146.945312 C 215.664062 145.300781 217.007812 143.957031 218.652344 143.957031 C 220.296875 143.957031 221.640625 145.300781 221.640625 146.945312 L 221.640625 182.960938 C 221.640625 184.351562 221.3125 185.742188 220.695312 186.976562 L 215.664062 197.039062 L 215.664062 203.714844 L 167.859375 203.714844 L 167.859375 196.746094 L 160.203125 186.535156 C 159.269531 185.285156 158.675781 183.816406 158.476562 182.273438 L 156.363281 165.328125 C 155.992188 162.375 154.929688 159.503906 153.273438 157.03125 L 150.203125 152.421875 C 150.027344 152.152344 149.933594 151.847656 149.933594 151.535156 C 149.933594 150.644531 150.644531 149.933594 151.535156 149.933594 C 157.847656 149.933594 163.320312 154.425781 164.558594 160.613281 L 168.398438 179.8125 L 175.679688 179.8125 L 178.234375 174.710938 C 179.261719 172.644531 179.8125 170.335938 179.8125 168.023438 L 179.8125 105.117188 C 179.8125 103.472656 181.152344 102.132812 182.800781 102.132812 C 184.445312 102.132812 185.785156 103.472656 185.785156 105.117188 L 185.785156 158.898438 L 191.761719 158.898438 L 191.761719 134.996094 C 191.761719 133.351562 193.105469 132.007812 194.75 132.007812 Z M 221.640625 221.640625 L 161.886719 221.640625 L 161.886719 209.6875 L 221.640625 209.6875 Z M 181.808594 96.261719 C 173.207031 90.449219 166.484375 82.371094 162.386719 72.8125 C 162.046875 72.03125 161.886719 71.214844 161.886719 70.082031 C 161.886719 68.449219 162.550781 66.851562 163.707031 65.695312 L 167.859375 61.539062 C 169.4375 59.964844 172.261719 59.964844 173.835938 61.539062 L 179.101562 66.804688 C 179.554688 67.269531 179.8125 67.867188 179.8125 68.519531 L 179.8125 68.914062 C 179.8125 69.839844 179.296875 70.667969 178.46875 71.074219 C 175.609375 72.511719 173.835938 75.382812 173.835938 78.578125 L 173.835938 78.976562 C 173.835938 81.21875 174.710938 83.328125 176.296875 84.917969 L 179.101562 87.71875 C 180.6875 89.304688 182.800781 90.179688 185.039062 90.179688 L 185.4375 90.179688 C 188.632812 90.179688 191.503906 88.40625 192.941406 85.546875 C 193.351562 84.71875 194.179688 84.203125 195.101562 84.203125 L 195.496094 84.203125 C 196.152344 84.203125 196.746094 84.460938 197.210938 84.917969 L 202.476562 90.179688 C 203.257812 90.960938 203.714844 92.058594 203.714844 93.167969 C 203.714844 94.277344 203.257812 95.375 202.476562 96.15625 L 198.320312 100.308594 C 196.488281 102.144531 193.476562 102.632812 191.15625 101.476562 L 190.898438 101.347656 C 189.476562 98.292969 186.394531 96.15625 182.800781 96.15625 C 182.460938 96.15625 182.132812 96.214844 181.808594 96.261719 Z M 152.921875 114.082031 C 147.972656 114.082031 143.957031 110.066406 143.957031 105.117188 L 143.957031 57.316406 C 143.957031 52.367188 147.972656 48.351562 152.921875 48.351562 L 212.675781 48.351562 C 217.625 48.351562 221.640625 52.367188 221.640625 57.316406 L 221.640625 105.117188 C 221.640625 110.066406 217.625 114.082031 212.675781 114.082031 L 191.761719 114.082031 L 191.761719 107.851562 C 192.472656 107.988281 193.199219 108.105469 193.933594 108.105469 C 197.132812 108.105469 200.269531 106.8125 202.546875 104.535156 L 206.699219 100.378906 C 208.625 98.453125 209.6875 95.886719 209.6875 93.167969 C 209.6875 90.449219 208.625 87.882812 206.699219 85.957031 L 201.4375 80.691406 C 199.851562 79.105469 197.738281 78.230469 195.496094 78.230469 L 195.101562 78.230469 C 191.902344 78.230469 189.03125 80.003906 187.597656 82.863281 C 187.1875 83.691406 186.359375 84.203125 185.4375 84.203125 L 185.039062 84.203125 C 184.386719 84.203125 183.792969 83.949219 183.324219 83.492188 L 180.523438 80.691406 C 180.066406 80.226562 179.8125 79.628906 179.8125 78.976562 L 179.8125 78.578125 C 179.8125 77.65625 180.324219 76.828125 181.152344 76.421875 C 184.011719 74.984375 185.785156 72.113281 185.785156 68.914062 L 185.785156 68.519531 C 185.785156 66.277344 184.910156 64.164062 183.324219 62.578125 L 178.0625 57.316406 C 174.210938 53.464844 167.488281 53.464844 163.636719 57.316406 L 159.480469 61.46875 C 157.207031 63.746094 155.910156 66.886719 155.910156 70.363281 C 155.910156 72.019531 156.238281 73.644531 156.890625 75.160156 C 161.046875 84.835938 167.582031 93.144531 175.925781 99.433594 C 174.640625 100.988281 173.835938 102.949219 173.835938 105.117188 L 173.835938 114.082031 Z M 212.675781 120.058594 C 220.914062 120.058594 227.613281 113.359375 227.613281 105.117188 L 227.613281 57.316406 C 227.613281 49.074219 220.914062 42.375 212.675781 42.375 L 152.921875 42.375 C 144.683594 42.375 137.984375 49.074219 137.984375 57.316406 L 137.984375 105.117188 C 137.984375 113.359375 144.683594 120.058594 152.921875 120.058594 L 173.835938 120.058594 L 173.835938 168.023438 C 173.835938 169.390625 173.519531 170.742188 172.925781 171.96875 L 170.417969 159.433594 C 168.632812 150.472656 160.683594 143.957031 151.535156 143.957031 C 147.355469 143.957031 143.957031 147.355469 143.957031 151.535156 C 143.957031 153.027344 144.402344 154.484375 145.230469 155.734375 L 148.3125 160.34375 C 149.445312 162.046875 150.179688 164.03125 150.4375 166.0625 L 152.546875 183.007812 C 152.875 185.589844 153.867188 188.039062 155.417969 190.117188 L 161.886719 198.730469 L 161.886719 203.714844 L 155.910156 203.714844 L 155.910156 227.613281 L 227.613281 227.613281 L 227.613281 203.714844 L 221.640625 203.714844 L 221.640625 198.449219 L 226.039062 189.648438 C 227.066406 187.585938 227.613281 185.273438 227.613281 182.960938 L 227.613281 146.945312 C 227.613281 142 223.601562 137.984375 218.652344 137.984375 C 217.472656 137.984375 216.351562 138.230469 215.3125 138.636719 C 214.285156 134.832031 210.832031 132.007812 206.699219 132.007812 C 205.523438 132.007812 204.402344 132.253906 203.363281 132.660156 C 202.335938 128.855469 198.882812 126.03125 194.75 126.03125 C 193.699219 126.03125 192.707031 126.253906 191.761719 126.582031 L 191.761719 120.058594 L 212.675781 120.058594 " fill-opacity="1" fill-rule="nonzero"/></g><g clip-path="url(#352cfaaf3f)"><path fill="#ffffff" d="M 126.03125 200.726562 C 126.03125 205.675781 122.019531 209.6875 117.070312 209.6875 L 57.316406 209.6875 C 52.367188 209.6875 48.351562 205.675781 48.351562 200.726562 L 48.351562 152.921875 C 48.351562 147.972656 52.367188 143.957031 57.316406 143.957031 L 117.070312 143.957031 C 122.019531 143.957031 126.03125 147.972656 126.03125 152.921875 Z M 117.070312 137.984375 L 57.316406 137.984375 C 49.074219 137.984375 42.375 144.683594 42.375 152.921875 L 42.375 200.726562 C 42.375 208.964844 49.074219 215.664062 57.316406 215.664062 L 117.070312 215.664062 C 125.308594 215.664062 132.007812 208.964844 132.007812 200.726562 L 132.007812 152.921875 C 132.007812 144.683594 125.308594 137.984375 117.070312 137.984375 " fill-opacity="1" fill-rule="nonzero"/></g><g clip-path="url(#2d4af84527)"><path fill="#ffffff" d="M 126.03125 105.117188 C 126.03125 110.066406 122.019531 114.082031 117.070312 114.082031 L 57.316406 114.082031 C 52.367188 114.082031 48.351562 110.066406 48.351562 105.117188 L 48.351562 57.316406 C 48.351562 52.367188 52.367188 48.351562 57.316406 48.351562 L 117.070312 48.351562 C 122.019531 48.351562 126.03125 52.367188 126.03125 57.316406 Z M 117.070312 42.375 L 57.316406 42.375 C 49.074219 42.375 42.375 49.074219 42.375 57.316406 L 42.375 105.117188 C 42.375 113.359375 49.074219 120.058594 57.316406 120.058594 L 117.070312 120.058594 C 125.308594 120.058594 132.007812 113.359375 132.007812 105.117188 L 132.007812 57.316406 C 132.007812 49.074219 125.308594 42.375 117.070312 42.375 " fill-opacity="1" fill-rule="nonzero"/></g><path fill="#ffffff" d="M 87.191406 90.179688 C 83.902344 90.179688 81.21875 87.496094 81.21875 84.203125 L 81.21875 78.230469 C 81.21875 74.9375 83.902344 72.253906 87.191406 72.253906 C 90.484375 72.253906 93.167969 74.9375 93.167969 78.230469 L 93.167969 84.203125 C 93.167969 87.496094 90.484375 90.179688 87.191406 90.179688 Z M 87.191406 54.328125 C 74.015625 54.328125 63.289062 65.054688 63.289062 78.230469 L 63.289062 84.203125 C 63.289062 97.382812 74.015625 108.105469 87.191406 108.105469 L 87.191406 102.132812 C 77.308594 102.132812 69.265625 94.089844 69.265625 84.203125 L 69.265625 78.230469 C 69.265625 68.34375 77.308594 60.304688 87.191406 60.304688 C 97.078125 60.304688 105.117188 68.34375 105.117188 78.230469 L 105.117188 93.167969 C 105.117188 94.8125 103.777344 96.15625 102.132812 96.15625 C 100.484375 96.15625 99.144531 94.8125 99.144531 93.167969 L 99.144531 78.230469 C 99.144531 71.636719 93.785156 66.277344 87.191406 66.277344 C 80.597656 66.277344 75.242188 71.636719 75.242188 78.230469 L 75.242188 84.203125 C 75.242188 90.796875 80.597656 96.15625 87.191406 96.15625 C 89.433594 96.15625 91.5 95.503906 93.296875 94.429688 C 93.914062 98.769531 97.613281 102.132812 102.132812 102.132812 C 107.078125 102.132812 111.09375 98.117188 111.09375 93.167969 L 111.09375 78.230469 C 111.09375 65.054688 100.367188 54.328125 87.191406 54.328125 " fill-opacity="1" fill-rule="nonzero"/><path fill="#ffffff" d="M 72.753906 178.5625 L 60.304688 188.53125 L 60.304688 166.109375 Z M 95.28125 176.460938 C 90.960938 180.78125 83.421875 180.78125 79.105469 176.460938 L 64.527344 161.886719 L 109.855469 161.886719 Z M 101.628906 178.574219 L 114.082031 166.109375 L 114.082031 188.53125 Z M 77.226562 182.648438 C 80.132812 184.679688 83.574219 185.785156 87.191406 185.785156 C 90.808594 185.785156 94.253906 184.679688 97.160156 182.648438 L 108.550781 191.761719 L 65.835938 191.761719 Z M 54.328125 197.738281 L 120.058594 197.738281 L 120.058594 155.910156 L 54.328125 155.910156 L 54.328125 197.738281 " fill-opacity="1" fill-rule="nonzero"/></svg>